<?xml version="1.0" encoding="UTF-8" standalone="no"?>
<svg xmlns:rdf="http://www.w3.org/1999/02/22-rdf-syntax-ns#" xmlns="http://www.w3.org/2000/svg" height="1200" viewBox="0 0 1200 1200" width="1200" version="1.1" xmlns:cc="http://creativecommons.org/ns#" xmlns:xlink="http://www.w3.org/1999/xlink" xmlns:dc="http://purl.org/dc/elements/1.1/">
 <defs>
  <linearGradient id="luna_eye">
   <stop style="stop-color:#005877" offset="0"/>
   <stop style="stop-color:#00a395" offset="1"/>
  </linearGradient>
  <linearGradient id="linearGradient5039" y2="793.76" xlink:href="#luna_eye" gradientUnits="userSpaceOnUse" x2="3327.2" gradientTransform="matrix(3.6867 0 0 3.6867 -10290 -3264.1)" y1="773.05" x1="3331"/>
  <clipPath id="clipPath4397" clipPathUnits="userSpaceOnUse">
   <use xlink:href="#ellipse4368" transform="translate(498.14 -143.54)" height="100%" width="100%" y="0" x="0"/>
  </clipPath>
  <linearGradient id="linearGradient6338" y2="280.99" xlink:href="#luna_eye" gradientUnits="userSpaceOnUse" x2="1144.2" y1="222.78" x1="1139.6"/>
  <clipPath id="clipPath10655" clipPathUnits="userSpaceOnUse">
   <use xlink:href="#path4365" height="100%" width="100%" y="0" x="0"/>
  </clipPath>
 </defs>
 <g style="opacity:0">
  <rect style="opacity:1;fill:#172c65" height="204.08" width="237" y="-484.58" x="799.39"/>
  <rect style="opacity:1;fill:#263270" height="90.409" width="116.67" y="516.84" x="-188.9"/>
  <rect style="opacity:1;fill:#1d3271" height="217.25" width="231.73" y="-488.53" x="568.97"/>
  <rect style="opacity:1;fill:#03102f" height="164.58" width="472.69" y="-650.49" x="563.7"/>
  <rect style="opacity:1;fill:#6b6dcc" height="184.33" width="206.72" y="-649.17" x="1070.6"/>
  <rect style="opacity:1;fill:#8a92cf" height="198.82" width="204.08" y="-467.47" x="1085.1"/>
  <rect style="opacity:1;fill:#727fb6" height="202.77" width="221.2" y="-462.2" x="1287.9"/>
  <rect style="opacity:1;fill:#565eb0" height="181.7" width="227.78" y="-646.53" x="1281.3"/>
  <rect style="opacity:1;fill:#01000e" height="221.2" width="242.27" y="-483.27" x="1540.7"/>
  <rect style="opacity:1;fill:#4a50a8" height="167.22" width="255.43" y="-643.9" x="1532.8"/>
  <ellipse style="opacity:1;fill:#bcccdb" rx="61.225" ry="53.325" cy="-451.01" cx="1667.7"/>
  <rect style="opacity:1;fill:#0b3dac" height="188.07" width="229.03" y="-510.6" x="222.18"/>
  <rect style="opacity:1;fill:#2b2bae;fill-opacity:.50196" height="195.52" width="212.27" y="-698.67" x="235.21"/>
  <rect style="opacity:1;fill:#5c41c1" height="163.86" width="234.62" y="-862.53" x="225.9"/>
  <path style="opacity:1;fill:#80baf5" d="m294.8-395.15-33.856-19.014-38.764 2.2557 19.014-33.856-2.2557-38.764 33.856 19.014 38.764-2.2557-19.014 33.856z"/>
  <ellipse style="opacity:1;fill:#bcccdb" rx="105.67" ry="135.46" cy="-408.95" cx="2062.9"/>
  <rect style="opacity:1;fill:#4f73be" height="77.275" width="346.34" y="-571.42" x="1889.3"/>
  <ellipse style="opacity:1;fill:url(#linearGradient5039)" rx="89.379" ry="104.28" cy="-350.76" cx="1983.3"/>
  <rect style="opacity:1;fill:#42c2b2" height="35.379" width="100.55" y="-325.63" x="2004.7"/>
  <rect style="opacity:1;fill:#6ccccf" height="39.103" width="109.86" y="-287.45" x="2000.1"/>
  <rect style="opacity:1;fill:#2b2bae" height="195.52" width="212.27" y="-700.03" x="43.769"/>
  <path id="star_original" style="opacity:1;fill:#80baf5;fill-opacity:.64246" d="m8 16-1.3153-6.6847-6.6847-1.3153 6.6847-1.3153 1.3153-6.6847 1.3153 6.6847 6.6847 1.3153-6.6847 1.3153z"/>
 </g>
 <g style="display:none">
  <rect style="fill:#161922" height="1200" width="1200" y="0" x="0"/>
 </g>
 <g>
  <g>
   <path d="m432.24 682.93c-240.42 92.631-258.09 207.89-234.76 247.49-19.799 62.225 48.604 66.975 125.87 51.619 113.84-22.627 55.109 52.806 115.26 69.297 41.284 11.318 114.23-23.28 154.86-18.385 58.69 7.071 53.74 58.69 125.16 55.862 71.418-2.8285 114.3-42.289 141.42-45.962 23.302-3.1557 46.79 11.278 51.619 22.627 19.092-25.456-2.682-42.891-35.355-45.255-17.073-1.2352-115.85-16.784-126.57-67.175-9.6905-45.551 39.244-50.558 6.0105-124.1-39.408-87.201-240.42-12.374-273.65-55.861-25.737-33.677-2.8284-66.822-2.8284-66.822" style="fill:#2b2bae;fill-opacity:.50196"/>
   <path style="stroke:#5c41c1;stroke-miterlimit:4.9;stroke-width:9;fill:none" d="m432.24 682.93c-240.42 92.631-258.09 207.89-234.76 247.49-19.799 62.225 48.604 66.975 125.87 51.619 113.84-22.627 55.109 52.806 115.26 69.297 41.284 11.318 114.23-23.28 154.86-18.385 58.69 7.071 53.74 58.69 125.16 55.862 71.418-2.8285 114.3-42.289 141.42-45.962 23.302-3.1557 46.79 11.278 51.619 22.627 19.092-25.456-2.682-42.891-35.355-45.255-17.073-1.2352-115.85-16.784-126.57-67.175-9.6905-45.551 39.244-50.558 6.0105-124.1-39.408-87.201-240.42-12.374-273.65-55.861-25.737-33.677-2.8284-66.822-2.8284-66.822"/>
   <path style="fill:#0b3dac" d="m434.36 699.2c-137.53 53.033-236.2 209.77-168.29 250.32 33.852 20.213 113.49-35.002 163.34 18.385-1.7678 32.527 12.728 46.669 48.437 48.083 36.91 1.4619 84.146-18.385 125.86-13.435 41.719 4.9497 63.507 32.365 87.328 38.891 25.809 7.071 36.77 1.7677 53.033 4.2426 14.068 2.1409 62.932 24.042 75.66-4.2426 12.728-28.284-71.064-35.355-94.045-81.317-20.142-40.284 11.314-91.924-25.456-125.16-25.373-22.933-161.92-28.155-232.14-46.245-31.802-8.1924-36.044-42.105-16.757-69.72"/>
   <use xlink:href="#star_original" transform="matrix(.24599 -.57469 .57469 .24599 858.55 1030.2)" height="100%" width="100%" y="0" x="0"/>
   <use xlink:href="#star_original" transform="matrix(1.3662 -.17809 .17809 1.3662 804.52 1006.8)" height="100%" width="100%" y="0" x="0"/>
   <use xlink:href="#star_original" transform="matrix(-1.0109 .72887 -.72887 -1.0109 870.62 1054.9)" height="100%" width="100%" y="0" x="0"/>
   <use xlink:href="#star_original" transform="matrix(-.51897 -.84385 .84385 -.51897 695.12 1044.8)" height="100%" width="100%" y="0" x="0"/>
   <use xlink:href="#star_original" transform="matrix(-.61282 -.054488 .054488 -.61282 574.41 993.5)" height="100%" width="100%" y="0" x="0"/>
   <use xlink:href="#star_original" transform="matrix(-.79059 .27521 -.27521 -.79059 569.46 1030.5)" height="100%" width="100%" y="0" x="0"/>
   <use xlink:href="#star_original" transform="matrix(1.0277 1.117 -1.117 1.0277 509.9 901.19)" height="100%" width="100%" y="0" x="0"/>
   <use xlink:href="#star_original" transform="matrix(1.0656 .62873 -.62873 1.0656 531.85 1025.6)" height="100%" width="100%" y="0" x="0"/>
   <use xlink:href="#star_original" transform="matrix(-.47442 .37862 -.37862 -.47442 523.41 1023.6)" height="100%" width="100%" y="0" x="0"/>
   <use xlink:href="#star_original" transform="matrix(1.3098 -.60335 .60335 1.3098 470.06 992.2)" height="100%" width="100%" y="0" x="0"/>
   <use xlink:href="#star_original" transform="matrix(.29827 .88995 -.88995 .29827 441.41 1002.1)" height="100%" width="100%" y="0" x="0"/>
   <use xlink:href="#star_original" transform="matrix(-.36845 -.91789 .91789 -.36845 424.32 932.6)" height="100%" width="100%" y="0" x="0"/>
   <use xlink:href="#star_original" transform="matrix(.83554 .63718 -.63718 .83554 388.48 947.27)" height="100%" width="100%" y="0" x="0"/>
   <use xlink:href="#star_original" transform="matrix(.67310 -.18761 .18761 .67310 276.2 895.86)" height="100%" width="100%" y="0" x="0"/>
   <use xlink:href="#star_original" transform="matrix(.66308 -1.3445 1.3445 .66308 238.91 884.53)" height="100%" width="100%" y="0" x="0"/>
   <use xlink:href="#star_original" transform="matrix(-.43533 -.61943 .61943 -.43533 295.09 812.41)" height="100%" width="100%" y="0" x="0"/>
   <use xlink:href="#star_original" transform="matrix(.41746 .76241 -.76241 .41746 359.13 774.27)" height="100%" width="100%" y="0" x="0"/>
   <use xlink:href="#star_original" transform="matrix(-.038095 .76151 -.76151 -.038095 383.53 763.22)" height="100%" width="100%" y="0" x="0"/>
   <use xlink:href="#star_original" transform="matrix(-.75445 -.12723 .12723 -.75445 354.41 865.41)" height="100%" width="100%" y="0" x="0"/>
   <use xlink:href="#star_original" transform="matrix(-1.2592 -.090545 .090545 -1.2592 368.18 901.03)" height="100%" width="100%" y="0" x="0"/>
   <use xlink:href="#star_original" transform="matrix(.049006 1.0687 -1.0687 .049006 403.35 859.92)" height="100%" width="100%" y="0" x="0"/>
   <use xlink:href="#star_original" transform="matrix(-.54465 -.012295 .012295 -.54465 455.36 898.89)" height="100%" width="100%" y="0" x="0"/>
   <use xlink:href="#star_original" transform="matrix(-.40768 -.50169 .50169 -.40768 591.26 838.87)" height="100%" width="100%" y="0" x="0"/>
   <use xlink:href="#star_original" transform="matrix(.32569 .49922 -.49922 .32569 681.59 835.84)" height="100%" width="100%" y="0" x="0"/>
   <use xlink:href="#star_original" transform="matrix(.27195 -.98696 .98696 .27195 543.05 964.76)" height="100%" width="100%" y="0" x="0"/>
   <use xlink:href="#star_original" transform="matrix(-.30405 -.45405 .45405 -.30405 581.92 961.45)" height="100%" width="100%" y="0" x="0"/>
   <use xlink:href="#star_original" transform="matrix(.39624 -1.1753 1.1753 .39624 687.79 961.4)" height="100%" width="100%" y="0" x="0"/>
   <use xlink:href="#star_original" transform="matrix(-0.559 .37145 -.37145 -0.559 674.34 932.64)" height="100%" width="100%" y="0" x="0"/>
   <use xlink:href="#star_original" transform="matrix(-.83747 .73572 -.73572 -.83747 754.52 894.03)" height="100%" width="100%" y="0" x="0"/>
   <use xlink:href="#star_original" transform="matrix(.72363 .11949 -.11949 .72363 730.69 842.32)" height="100%" width="100%" y="0" x="0"/>
   <use xlink:href="#star_original" transform="matrix(-.58160 -.90110 .90110 -.58160 633.65 938.32)" height="100%" width="100%" y="0" x="0"/>
   <use xlink:href="#star_original" transform="matrix(.80623 -.13712 .13712 .80623 597.71 915.38)" height="100%" width="100%" y="0" x="0"/>
   <use xlink:href="#star_original" transform="matrix(.55383 .83951 -.83951 .55383 592.68 881.35)" height="100%" width="100%" y="0" x="0"/>
   <use xlink:href="#star_original" transform="matrix(-1.0615 -.66941 .66941 -1.0615 642.82 990.5)" height="100%" width="100%" y="0" x="0"/>
   <use xlink:href="#star_original" transform="matrix(-.76074 .48845 -.48845 -.76074 559.25 866.76)" height="100%" width="100%" y="0" x="0"/>
  </g>
  <g>
   <path style="stroke:#03102f;stroke-miterlimit:4.9;stroke-width:9;fill:#172c65" d="m556.69 710.51c32.88 42.426-3.8891 117.03-49.498 152.38 19.799 102.88 196.3 227.75 195.05 258.43-0.6799 16.729-76.096 24.007-102.87 15.51-34.226-10.861-152.89-209.9-147.34-276.41 15.006-7.2834 19.948-15.756 20.231-25.88 0.74266-26.646-33.096-41.732-4.8247-105.42"/>
  </g>
  <g>
   <path style="stroke:#03102f;stroke-miterlimit:4.9;stroke-width:9;fill:#172c65" d="m662.03 698.56c5.7193-14.78-0.2423-32.989-15.702-39.95-71.998-32.418 39.807-190.75 5.2454-260.15-33.75-67.78-178.22-109.05-195.61-180.99-16.1-66.61 13.83-101.21-10.37-110.43-23.91-9.1079-59.796 92.545-19.303 182.98-30.026-11.212-39.379-85.533-57.679-67.502-15.889 15.654-17.967 75.564 24.209 124.64-47.647-5.4655-91.081-0.32541-97.351 23.233-8.1357 30.567 48.015 44.664 85.87 55.286-18.58 4.8436-39.346 15.74-41.617 27.801-3.3038 17.549 11.537 33.311 98.611 28.688-54.814 29.809-68.269 80.841 42.715 54.292-35.002 53.316 2.0483 78.497 34.783 61.313-13.171 44.407 15.95 40.021 31.475 38.368-33.395 61.855 33.995 56.999 50.144 57.684"/>
  </g>
  <g>
   <path d="m1100.8 446.05c76.257-20.635 121.32 157.17-21.415 197.78-136.57 38.852-136.5 130.5-192 122.5-44.485-6.4122-46.975-154.55-110.83-186.38-68.266-34.029-250.4 64.759-285.17-227.62-22.804-191.77 133.3-227.72 175.59-231.73 101.64-9.6378 56.561 85.64 99.941 90.757 26.797 3.1612 85.362-87.036 142.75-47.768 74.416 50.922-25.82 162.85 13.899 201.54 35.575 34.646 90.96-29.581 125.93 2.9393 57.025 53.032-32.349 153.63 24.889 173.77 47.639 16.757 82.144-69.059 26.415-95.776z" style="fill:#2b2bae;fill-opacity:.50196"/>
   <path style="fill:#0b3dac" d="m536.54 188.31c57.276-39.598 129.05-58.336 160.87-23.688s-2.1214 100.41 37.477 113.14c39.598 12.728 83.39-49.776 125.16-25.456 55.862 32.527 13.105 151.71 43.841 177.48 35.33 29.627 54.447-16.263 92.631 2.8284 47.303 23.652 18.385 74.246 34.648 110.31 16.263 36.062 51.619 53.74 77.782 36.062-2.1214 38.184-39.824 62.181-91.415 57.361-52.921-4.9434-49.749 66.267-98.796 67.089-47.92 0.80343-48.633-125.16-114.39-147.08-65.761-21.92-136.63 18.385-200.98-3.5355-64.347-21.92-117.38-115.97-113.14-225.57 4.2426-109.6 46.316-138.95 46.316-138.95z"/>
   <path style="stroke:#5c41c1;stroke-miterlimit:4.9;stroke-width:8.4;fill:none" d="m1100.8 446.05c76.257-20.635 121.32 157.17-21.415 197.78-136.57 38.852-136.5 130.5-192 122.5-44.485-6.4122-45.172-158.46-110.83-186.38-74.742-31.785-258.17 51.311-286.17-229.62-18.876-189.4 134.3-225.72 176.59-229.73 101.64-9.6378 56.561 85.64 99.941 90.757 26.797 3.1612 85.362-87.036 142.75-47.768 74.416 50.922-25.82 162.85 13.899 201.54 35.575 34.646 90.96-29.581 125.93 2.9393 57.025 53.032-32.349 153.63 24.889 173.77 47.639 16.757 82.144-69.059 26.415-95.776z"/>
   <use xlink:href="#star_original" transform="matrix(-.62463 -1.1314 1.1314 -.62463 855.38 194.77)" height="100%" width="100%" y="0" x="0"/>
   <use xlink:href="#star_original" transform="matrix(.80536 .73408 -.73408 .80536 872.37 225.01)" height="100%" width="100%" y="0" x="0"/>
   <use xlink:href="#star_original" transform="matrix(0.51 .39117 -.39117 0.51 878.42 249.81)" height="100%" width="100%" y="0" x="0"/>
   <use xlink:href="#star_original" transform="matrix(-.20819 -.45801 .45801 -.20819 894.77 358.8)" height="100%" width="100%" y="0" x="0"/>
   <use xlink:href="#star_original" transform="matrix(-.39073 -.90947 .90947 -.39073 849.39 403.89)" height="100%" width="100%" y="0" x="0"/>
   <use xlink:href="#star_original" transform="matrix(1.3151 .11653 -.11653 1.3151 888.05 547.36)" height="100%" width="100%" y="0" x="0"/>
   <use xlink:href="#star_original" transform="matrix(-.76826 .40772 -.40772 -.76826 911.14 602.96)" height="100%" width="100%" y="0" x="0"/>
   <use xlink:href="#star_original" transform="matrix(.64879 -.031086 .031086 .64879 1023.9 507.15)" height="100%" width="100%" y="0" x="0"/>
   <use xlink:href="#star_original" transform="matrix(-.26484 1.1061 -1.1061 -.26484 1024.9 451.27)" height="100%" width="100%" y="0" x="0"/>
   <use xlink:href="#star_original" transform="matrix(-.62923 .43871 -.43871 -.62923 905.62 459.52)" height="100%" width="100%" y="0" x="0"/>
   <use xlink:href="#star_original" transform="matrix(1.1606 -.26734 .26734 1.1606 897.27 473.29)" height="100%" width="100%" y="0" x="0"/>
   <use xlink:href="#star_original" transform="matrix(-.97592 -.19015 .19015 -.97592 938.35 533.29)" height="100%" width="100%" y="0" x="0"/>
   <use xlink:href="#star_original" transform="matrix(.25110 -1.1294 1.1294 .25110 997.61 557.66)" height="100%" width="100%" y="0" x="0"/>
   <use xlink:href="#star_original" transform="matrix(1.3933 .11780 -.11780 1.3933 1057.2 577.5)" height="100%" width="100%" y="0" x="0"/>
   <use xlink:href="#star_original" transform="matrix(-1.0666 -.10931 .10931 -1.0666 1031.3 551.2)" height="100%" width="100%" y="0" x="0"/>
   <use xlink:href="#star_original" transform="matrix(-1.2209 -.019285 .019285 -1.2209 1087 546.62)" height="100%" width="100%" y="0" x="0"/>
   <use xlink:href="#star_original" transform="matrix(-.86717 -.23877 .23877 -.86717 1154.7 545.72)" height="100%" width="100%" y="0" x="0"/>
   <use xlink:href="#star_original" transform="matrix(.37851 -.63049 .63049 .37851 874.46 753.63)" height="100%" width="100%" y="0" x="0"/>
   <use xlink:href="#star_original" transform="matrix(.86855 .28794 -.28794 .86855 972.48 624.29)" height="100%" width="100%" y="0" x="0"/>
   <use xlink:href="#star_original" transform="matrix(.55584 .14345 -.14345 .55584 948.51 663.95)" height="100%" width="100%" y="0" x="0"/>
   <use xlink:href="#star_original" transform="matrix(.97756 .013356 -.013356 .97756 985.52 677.11)" height="100%" width="100%" y="0" x="0"/>
   <use xlink:href="#star_original" transform="matrix(-1.146 .17667 -.17667 -1.146 806.49 577.27)" height="100%" width="100%" y="0" x="0"/>
   <use xlink:href="#star_original" transform="matrix(.12283 -.76301 .76301 .12283 748.69 527.88)" height="100%" width="100%" y="0" x="0"/>
   <use xlink:href="#star_original" transform="matrix(.28454 -.86930 .86930 .28454 700.33 515.08)" height="100%" width="100%" y="0" x="0"/>
   <use xlink:href="#star_original" transform="matrix(.85771 -.028203 .028203 .85771 712.92 522.8)" height="100%" width="100%" y="0" x="0"/>
   <use xlink:href="#star_original" transform="matrix(-1.1846 -.49863 .49863 -1.1846 562.53 435.93)" height="100%" width="100%" y="0" x="0"/>
   <use xlink:href="#star_original" transform="matrix(.85459 -.78362 .78362 .85459 530.73 393.62)" height="100%" width="100%" y="0" x="0"/>
   <use xlink:href="#star_original" transform="matrix(-1.3407 .71259 -.71259 -1.3407 534 350.68)" height="100%" width="100%" y="0" x="0"/>
   <use xlink:href="#star_original" transform="matrix(-.10403 -.54898 .54898 -.10403 550.1 332.38)" height="100%" width="100%" y="0" x="0"/>
   <use xlink:href="#star_original" transform="matrix(-.29270 -1.2432 1.2432 -.29270 530.29 269.36)" height="100%" width="100%" y="0" x="0"/>
   <use xlink:href="#star_original" transform="matrix(-.55228 .57822 -.57822 -.55228 500.36 282.58)" height="100%" width="100%" y="0" x="0"/>
   <use xlink:href="#star_original" transform="matrix(.36137 .89389 -.89389 .36137 550.67 276.8)" height="100%" width="100%" y="0" x="0"/>
   <use xlink:href="#star_original" transform="matrix(-1.1721 .0071118 -.0071118 -1.1721 612.71 216.82)" height="100%" width="100%" y="0" x="0"/>
   <use xlink:href="#star_original" transform="matrix(-.57131 -.038386 .038386 -.57131 614.3 144.75)" height="100%" width="100%" y="0" x="0"/>
   <use xlink:href="#star_original" transform="matrix(-1.2175 -.37999 .37999 -1.2175 639.07 187.99)" height="100%" width="100%" y="0" x="0"/>
   <use xlink:href="#star_original" transform="matrix(-.48361 -.49813 .49813 -.48361 625.98 230.78)" height="100%" width="100%" y="0" x="0"/>
   <use xlink:href="#star_original" transform="matrix(.17492 -.67365 .67365 .17492 717.13 221.48)" height="100%" width="100%" y="0" x="0"/>
   <use xlink:href="#star_original" transform="matrix(-.72319 1.0563 -1.0563 -.72319 734.66 239.06)" height="100%" width="100%" y="0" x="0"/>
   <use xlink:href="#star_original" transform="matrix(-.69026 .75847 -.75847 -.69026 752.21 285.71)" height="100%" width="100%" y="0" x="0"/>
   <use xlink:href="#star_original" transform="matrix(.50594 .93819 -.93819 .50594 752.71 304.38)" height="100%" width="100%" y="0" x="0"/>
   <use xlink:href="#star_original" transform="matrix(-.79728 -.48864 .48864 -.79728 779.62 315.94)" height="100%" width="100%" y="0" x="0"/>
   <use xlink:href="#star_original" transform="translate(826.4 298.28)" height="100%" width="100%" y="0" x="0"/>
  </g>
  <g>
   <path style="stroke:#03102f;stroke-miterlimit:4.9;stroke-width:9;fill:#182c65" d="m668.41 678.69c26.163 8.4853 164.04 2.2372 217.44-6.364 56.533-9.1066 214.61-45.608 224.15-38.891 9.5459 6.7175-9.1924 92.631-23.335 108.89-70.711 10.96-395.69-17.531-419.03-27.784"/>
  </g>
  <g>
   <path style="stroke-linejoin:round;stroke:#03102f;stroke-miterlimit:4.9;stroke-width:8.4;fill:#1d3271" d="m680.02 445.97c-54.927 112.86 76.099 147.77 31.199 260.92-39.208 98.809-159.29 72.272-198.02 76.807-40.4 4.7304-91.719 38.69-117.08 3.1783-19.445-27.224-27.04-101.79 33.771-102.85 60.811-1.0607 111.29-32.669 123.66-102.47 3.4124-19.255 5.4805-101.06-1.7739-165.21-6.6537-58.841 3.5108-102.13 23.787-112.28 49.837-24.928 117.95-42.922 140.93 42.638 22.981 85.56-36.477 99.263-36.477 99.263z"/>
  </g>
  <g>
   <path d="m429.89 684.02c-87.537-3.1803-63.772 151.26-147.29 166.16-61.61 91.952-87.44 280.14-69.646 297.62 15.168 14.897 107.43 18.451 113.65 3.4644 15.718-37.895-42.147-218.02 7.3505-290.14 94.752-41.366 126.69-82.796 131.94-101.05" style="fill:#1d3271"/>
   <path style="fill:#01000e" d="m328.44 818.67c26.663 8.1269 49.431-20.283 45.952-32.343 6 3.75 17.75-4.5 19.25-9 8.75 20 46 12.25 54-23.5 25-0.25 29.268-64.456-17.067-69.445-57.141-6.1533-64.44 63.474-102.14 134.29z"/>
   <ellipse style="fill:#01000e" rx="5.8669" ry="8.4428" transform="matrix(.90347 .42865 -.43846 .89875 0 0)" cy="642.73" cx="653.68"/>
   <ellipse style="fill:#01000e" rx="8.4853" ry="10.978" transform="matrix(.98027 .19765 -.41356 .91048 0 0)" cy="779.11" cx="669.01"/>
   <ellipse style="fill:#01000e" rx="8.6788" ry="10.959" transform="matrix(.80564 .59241 -.58324 .81230 0 0)" cy="420.33" cx="784.45"/>
   <ellipse style="fill:#01000e" rx="5.0254" ry="6.9392" transform="matrix(1 0 -.29559 .95531 0 0)" cy="842.6" cx="647.66"/>
   <ellipse style="fill:#01000e" rx="13.25" ry="18.25" transform="rotate(-7.3167)" cy="787.51" cx="408.43"/>
   <path style="fill:#bcccdb" d="m380.43 763.4c18.388 15.614 50.411-9.5609 48.586-30.987-2.4598 7.3796-17.858 19.76-25.078 8.6975-5.8281-8.9294 3.306-20.462 11.774-21.384-34.984-8.8243-49.895 31.266-35.283 43.673z"/>
   <path style="fill:#03102f" d="m430.04 679.87c-10.131-0.36806-19.651 1.2341-28.435 5.281-8.8072 4.0576-16.415 10.352-23.163 18.805-11.371 14.245-19.105 32.87-27.583 54.872-7.1971 18.68-14.997 39.984-25.792 56.372-5.0634 7.6871-10.894 14.506-17.886 19.837-6.9707 5.3153-15.221 9.2524-25.311 11.052a4.1559 4.1559 0 0 0 -2.7227 1.778c-30.099 44.923-52.557 113.79-65.225 178.25-5.9228 30.137-9.5049 58.471-10.41 80.568-0.4438 10.837-0.24597 20.251 0.67399 27.597 0.45867 3.6629 1.1029 6.8647 1.995 9.5878 0.86233 2.6323 2.0498 5.1178 3.8597 6.8954 2.5084 2.4637 6.2358 4.3879 10.405 5.9529 4.2722 1.6038 9.3711 2.9611 14.968 4.0898 11.157 2.2498 24.541 3.6404 37.578 4.0847 13.091 0.4462 25.942-0.057 36.01-1.6466 5.0578-0.7989 9.5833-1.8973 13.147-3.3786 1.8031-0.7494 3.4737-1.6428 4.8744-2.7331 1.4017-1.0911 2.6744-2.4911 3.4153-4.2774 2.3176-5.5877 3.1057-13.325 3.115-22.136 0.009-8.9416-0.79443-19.524-2.0017-31.068-1.5597-14.914-7.6981-61.386-9.8122-81.068-3.2563-30.315-5.1854-60.043-3.4621-86.763 1.7996-27.905 7.5022-50.875 18.444-67.377 51.938-22.792 82.227-44.371 99.49-59.379 9.2842-8.0715 15.763-15.082 20.24-20.606 2.4602-3.0356 5.2984-8.5273 7.0305-13.779 2.1161-6.4156 1.5852-7.7371 2.4106-10.606-0.48626 1.6904-2.6263 4.7238-6.0267 8.5545-2.3238 2.6178-8.6602 9.0939-9.8766 10.596-4.1711 5.15-10.299 11.802-19.231 19.568-16.691 14.511-46.555 35.854-98.471 58.519a4.156 4.1558 5.4374 0 0 -1.7638 1.4572c-12.597 18.356-18.665 43.427-20.541 72.518-1.769 27.43 0.21924 57.713 3.4924 88.186 2.3391 21.776 8.0816 64.519 9.8098 81.045 1.1975 11.45 1.9647 21.686 1.958 30.165-0.007 8.6218-0.82242 14.988-2.4822 18.99-0.0323 0.078-0.20024 0.4031-0.83795 0.9002-0.63858 0.4978-1.6048 1.0545-2.964 1.6194-2.7079 1.1254-6.5128 2.095-11.254 2.8439-9.3699 1.4798-21.658 1.985-34.43 1.5497-12.691-0.4326-25.608-1.7859-36.218-3.9256-5.3173-1.0722-9.9739-2.3258-13.673-3.7122-3.8028-1.4254-6.2503-2.8668-7.5187-4.1126-0.42119-0.4137-1.1192-1.4591-1.8022-3.5527-0.65338-2.0031-1.2148-4.7225-1.6294-8.0333-0.8404-6.7114-1.0508-15.621-0.61655-26.224 0.88316-21.565 4.3965-49.466 10.261-79.305 12.443-63.313 34.288-130.16 63.017-173.79 10.668-2.1776 19.571-6.5269 27.123-12.285 7.9346-6.0497 14.37-13.65 19.79-21.878 11.405-17.315 19.551-39.644 26.606-57.955 8.531-22.142 15.864-39.574 26.323-52.675 6.0822-7.6191 12.71-13.022 20.138-16.444 7.416-3.4166 15.623-4.8492 24.663-4.5208a4.1559 4.1559 90 0 0 0.30178 -8.3063z"/>
  </g>
  <g>
   <path d="m539.15 659.83c1.1537-15.966-10.145-32.919-27.355-36.646-80.16-17.35-11.76-235.72-66.4-297.85-53.37-60.68-219.27-35.29-257.88-103.56-35.75-63.21-11.26-103.74-37.71-107.89-26.118-4.1069-66.611 97.943 20.556 179.32-29.024 4.9068-83.885-58.336-94.156-48.669-12.198 11.482 2.3566 84.752 68.261 127.38-48.237 4.4926-92.893 21.004-91.949 45.858 1.2249 32.249 60.371 34.605 100.58 37.312-16.715 8.7226-33.75 23.951-32.348 36.48 2.0401 18.229 21.287 30.881 105.05 8.0679-49.077 63.246-12.025 82.533 88.535 32.812-26.963 58.697 17.41 74.975 53.947 52.933-15.544 38.997 23.13 38.794 39.909 36.041-23.966 52.365 46.033 63.297 62.579 61.518" style="fill:#1d3271"/>
   <path style="fill:#03102f" d="m399.54 498.55c-4.5522 2.5049-12.234 6.9104-15.589 13.926-1.6213 3.3901-2.2012 7.2155-1.3582 10.943 0.82209 3.6349 2.8751 6.6808 5.6466 9.0701 2.6616 2.2945 6.3085 4.0435 10.768 5.2115 4.4124 1.1556 8.6899 1.5019 11.316 1.685-2.597-0.59538-6.6526-1.7727-10.529-3.7616-3.9441-2.0236-6.52-4.2598-8.302-6.3974-1.8376-2.2044-2.7759-4.5206-3.0684-6.8874-0.29982-2.426 0.0652-4.9642 0.90833-7.6845 0.8124-2.621 1.962-5.5013 4.1338-8.8347 2.0942-3.2144 4.5002-5.8169 6.074-7.2697z"/>
   <path d="m386.38 409.38c-39.375 0.4375-64.802 52.229-14.951 60.007-19.527 24.447-0.6135 44.07 28.434 32.298" style="fill:#1d3271"/>
   <path style="fill:#03102f" d="m386.38 409.38c-0.9216 0.0102-3.0213-0.65519-5.0222-1.1298-2.0858-0.49473-4.1398-0.81345-5.1511-0.58309-4.9855 1.1357-12.076 3.5436-19.176 8.918-7.0557 5.3413-12.094 12.115-14.624 18.948-1.8168 4.908-2.0381 8.997-1.8232 11.848 0.2363 3.1349 1.1591 7.1936 3.9042 11.234 3.5835 5.2738 10.145 10.305 21.552 12.935-3.1533 4.921-5.0145 9.8446-5.4524 14.532-0.56396 6.0362 1.2877 11.19 4.7665 14.93 3.4466 3.7051 8.1157 5.6627 12.778 6.4306 4.6804 0.77093 9.2116 0.34255 12.797-0.33837 3.2475-0.61679 5.7367-4.1234 8.9348-5.4194-1.0318 0.41816-3.1438 0.5217-5.2036 0.43738-1.9789-0.081-3.9426-0.34726-4.716-0.20056-3.2086 0.60856-7.073 0.91087-10.909 0.22068-3.8252-0.68817-7.2077-2.3011-9.5267-4.9184-2.2742-2.5669-3.5063-6.1011-2.9919-10.546 0.52309-4.5204 2.8377-9.7541 7.3603-15.337 1.2408-1.5316 2.5681-2.991 3.9754-4.3712-1.9891-0.13594-3.9711-0.36212-5.9397-0.67785-13.171-2.1123-19.23-7.1531-22.006-11.326-1.9306-2.9022-2.5718-5.7946-2.7441-8.0816-0.15445-2.0498-0.0685-5.1906 1.3201-9.1571 1.9613-5.602 6.0896-11.524 12.244-16.345 6.1534-4.82 12.396-7.0412 16.774-8.0382 0.80704-0.18379 2.4784-1.2786 4.2032-2.2036 1.7882-0.95903 3.6457-1.7499 4.6766-1.7614z"/>
   <path style="fill:#03102f" d="m539.15 659.83c0.23813-3.2955 1.1817-7.7099 0.10335-14.333-1.0233-6.285-3.5896-11.576-5.9192-14.22-4.7442-5.3853-11.662-10.337-20.633-12.28-8.6513-1.8734-15.431-6.3485-20.834-13.291-5.4706-7.0292-9.5246-16.584-12.409-28.642-5.469-22.864-6.2725-52.414-6.1427-85.998 0.11837-30.631 1.0644-65.915-1.4941-95.789-1.2469-14.559-3.3544-28.48-6.9454-40.829-3.5883-12.34-8.7357-23.387-16.262-31.945-13.915-15.823-34.885-25.985-59.342-33.448-23.798-7.2613-50.482-11.873-77.567-16.868-25.988-4.7934-52.013-9.8914-73.605-17.975 0 0-0.00018-0.00006-0.00018-0.00006-21.11-7.9028-37.828-18.585-46.858-34.548-17.219-30.441-20.108-55.287-21.808-74.362-0.78677-8.8316-1.354-17.115-3.5908-23.178-1.165-3.1579-2.8593-5.9909-5.5049-8.2344-2.6547-2.2512-5.9135-3.6094-9.8593-4.2296-4.7273-0.74308-9.3626 0.96888-13.386 3.956-3.9947 2.9658-7.747 7.4388-11.01 12.922-6.4483 10.835-11.435 26.385-12.728 44.642-2.3662 33.408 7.6248 76.849 45.507 116.63-3.6939-1.142-7.7162-2.942-11.971-5.2483-9.0556-4.9086-18.705-11.852-28.071-18.886-9.1198-6.8483-18.12-13.904-25.35-18.517-3.5912-2.2912-7.0789-4.2034-10.179-5.1729-1.5368-0.48064-3.2688-0.82459-4.9426-0.70784-1.7646 0.12308-3.5797 0.76987-5.0508 2.1547-2.4409 2.2978-3.8059 5.6944-4.5273 9.2822-0.73758 3.6686-0.90636 8.0454-0.547 12.885 0.71701 9.6562 3.5758 21.663 8.9019 34.566 9.5764 23.2 27.32 49.738 55.646 70.798-20.302 2.7128-39.552 7.5666-54.476 14.382-8.8195 4.0273-16.355 8.8422-21.675 14.501-5.372 5.7145-8.6234 12.459-8.3331 20.088 0.36454 9.5825 5.1176 16.877 12.26 22.277 7.017 5.3053 16.43 8.8794 26.63 11.412 16.091 3.9954 35.252 5.6405 52.322 6.8081-4.5709 3.2188-8.8418 6.7956-12.42 10.543-3.3076 3.4641-6.1156 7.1691-8.0125 10.983-1.8992 3.818-2.9749 7.9314-2.5102 12.079 0.59254 5.2895 2.488 10.467 6.7127 14.682 4.2309 4.2214 10.379 7.0596 18.676 8.4422 15.128 2.5208 38.454 0.35855 73.434-8.4258-8.1946 11.95-13.122 22.327-14.73 30.924-1.0467 5.597-0.73444 10.708 1.3149 15.098 2.0704 4.4353 5.6658 7.5882 10.384 9.5453 4.7073 1.9526 10.49 2.7082 17.075 2.5023 6.6183-0.20696 14.24-1.3919 22.785-3.52 15.094-3.7593 33.261-10.51 54.116-20.289-3.7812 10.79-5.0418 20.118-4.2568 28.002 1.0639 10.684 5.8894 18.625 13.014 23.64 7.3526 5.1752 16.756 6.9822 26.353 6.1896 6.552-0.5411 13.305-2.2934 19.888-5.1281-1.2497 5.9691-1.0916 11.069 0.27219 15.413 2.1881 6.969 7.2376 11.246 12.786 13.776 5.8849 2.6834 12.711 3.5984 18.674 3.7685 3.0196 0.0862 5.9463-0.0151 8.6342-0.22254-3.7774 11.3-3.253 20.752-0.036 28.546 4.0954 9.9223 12.351 16.672 20.629 21.197 5.2252 2.8554 10.755 4.9882 15.952 6.5656 2.711 0.82294 7.0125 1.5219 11.841 1.7933 5.0372 0.2831 9.6883 0.0637 13.511-0.4001 2.997-0.36364 6.7609-1.1497 7.1965-1.1965-1.1739 0.12618-3.5412-0.1975-7.0829-1.0154-3.6604-0.84534-7.9308-2.0679-12.466-3.5776-3.4999-1.1649-8.9178-3.1614-10.554-3.658-4.7895-1.4539-9.7589-3.3832-14.36-5.8977-7.3996-4.0437-13.814-9.5808-16.885-17.022-2.7755-6.7252-3.2016-15.928 2.5964-28.596 1.2575-2.7474 2.6947-5.409 4.3024-7.9672-2.8877 0.88389-5.8316 1.5725-8.8118 2.0613-3.7059 0.60779-8.8398 1.1291-14.22 0.97628-5.432-0.15428-10.995-0.99708-15.426-3.0181-4.0233-1.8352-6.9622-4.5542-8.2433-8.6362-1.2679-4.0402-1.175-10.238 2.5764-19.649l4.6405-11.641-10.731 6.473c-8.3555 5.0401-17.2 7.9844-25.39 8.659-8.1918 0.67481-15.472-0.9424-20.793-4.6882-4.9839-3.5089-8.6371-9.1573-9.4751-17.581-0.82842-8.3275 1.1009-19.545 7.7208-33.955 1.8071-3.9336 3.8116-7.7734 6.0058-11.505-3.8794 2.0336-7.7826 4.0212-11.709 5.9624-24.725 12.224-45.666 20.286-62.309 24.43-8.1419 2.0273-15.166 3.094-21.009 3.2768-5.8748 0.18378-10.36-0.53299-13.577-1.8677-3.0632-1.271-4.9851-3.0949-6.021-5.3348-1.0563-2.2839-1.4369-5.5454-0.61128-9.9576 1.6549-8.8445 7.9624-21.22 20.199-36.988 2.7388-3.5294 5.58-6.978 8.5199-10.342-4.3097 1.2701-8.6324 2.4955-12.967 3.6761-41.324 11.254-66.556 13.733-81.367 11.263-7.1622-1.1944-11.48-3.4829-14.091-6.0893-2.5464-2.5419-3.8452-5.7598-4.2785-9.6361-0.23063-2.0655 0.26326-4.5203 1.6741-7.3572 1.4126-2.8406 3.6478-5.8629 6.5636-8.9152 5.7558-6.0252 13.775-11.759 21.866-15.98 5.2768-2.7528 10.812-4.9792 16.525-6.6469-6.0641-0.48249-12.131-0.92823-18.201-1.3372-20.131-1.3564-44.633-2.6121-64.172-7.466-9.7358-2.4185-17.867-5.6456-23.556-9.9482-5.5358-4.1867-8.6473-9.2765-8.8958-15.832-0.18149-4.7925 1.7901-9.4327 6.0378-13.95 4.2948-4.5672 10.76-8.8212 19.017-12.59 16.519-7.541 39.248-12.709 63.048-14.925 4.5021-0.41909 9.0135-0.72984 13.531-0.93198-3.9624-2.1334-7.8376-4.4249-11.616-6.8693-32.216-20.84-51.772-49.139-61.795-73.426-5.0475-12.231-7.6411-23.354-8.2784-31.95-0.32039-4.3219-0.13728-7.8828 0.40485-10.577 0.56198-2.7926 1.4129-4.1922 2.0173-4.7607-0.18549 0.17487-0.36595 0.18311-0.18407 0.16914 0.27173-0.0209 0.8012-0.0007 1.799 0.31161 1.9871 0.62196 4.7025 2.0321 8.1396 4.2256 6.8594 4.3777 15.426 11.098 24.815 18.15 9.373 7.0398 19.463 14.327 29.126 19.566 4.8823 2.6472 9.7418 4.8196 14.436 6.1714 4.682 1.3482 9.3736 1.9307 13.818 1.1796 2.5986-0.43917 5.0995-1.3326 7.3881-2.6395-1.7563-1.5307-3.4863-3.0914-5.1893-4.6812-43.01-40.154-53.779-84.932-51.414-118.3 1.215-17.14 5.885-31.36 11.551-40.879 2.8902-4.8555 5.9378-8.3205 8.8164-10.445 2.8526-2.1053 5.1646-2.6381 6.917-2.3623 2.7195 0.42788 4.4845 1.2696 5.6819 2.2867 1.2053 1.0238 2.195 2.5308 2.9938 4.6974 1.7412 4.7223 2.2498 11.495 3.0938 20.98 1.7385 19.537 4.772 45.804 22.877 77.814 10.489 18.545 29.436 30.162 51.301 38.349l0.00019 0.00007c22.409 8.39 49.17 13.604 75.052 18.378 27.298 5.0358 53.403 9.5549 76.621 16.64 23.906 7.295 43.058 16.867 55.411 30.915 6.4129 7.2926 11.093 17.058 14.471 28.678 3.373 11.601 5.4135 24.927 6.6333 39.173 2.5149 29.372 1.5814 64.053 1.4611 95.025-0.12999 33.487 0.63528 64.021 6.3761 88.024 3.0354 12.691 7.486 23.62 13.975 31.951 6.5514 8.4112 15.088 14.046 25.786 16.363 6.8716 1.4884 12.25 5.2983 16.012 9.5673 2.0267 2.3 5.2082 4.8156 8.3138 9.9875 2.9322 4.8829 4.1574 9.838 3.9359 12.904z"/>
   <path d="m448.65 636.33c-38.75-21.75-24.648-79.393-14.336-103.07 35.874-82.38-3.9013-199.68-56.957-198.22-47.74 1.3154-45.795 70.415 5.7929 78.793" style="fill:#1d3271"/>
   <path style="fill:#03102f" d="m448.65 636.33c-6.0482-3.3948-13.041-9.4228-17.653-19.34-4.5556-9.7948-5.6795-20.885-5.1709-31.477 0.39898-8.309 1.7812-15.673 2.5301-19.951 1.5756-8.9993 4.6768-20.61 9.2382-30.877 18.144-41.439 17.757-92.125 5.2916-133.11-6.8337-22.471-16.429-39.258-26.2-50.406-7.4098-8.4542-14.541-13.294-20.499-16.078-4.6667-2.1804-11.151-4.2758-18.94-4.0233-10.739 0.35557-20.785 4.0105-28.042 11.945-7.1523 7.8199-10.241 18.385-9.579 28.953 0.55972 8.9349 3.7099 17.081 8.1945 23.628 4.5106 6.585 9.9076 10.947 14.479 13.796 1.8399 1.147 5.5558 2.3826 9.9253 3.1612 7.7242 1.3763 5.1754 0.34919 10.924 1.2827-2.4387-0.39605-6.2532-1.96-9.8623-4.1457-6.1126-3.702-3.6636-2.9292-7.7581-5.4825-4.013-2.5025-8.6713-6.3677-12.485-12.138-3.7995-5.7478-6.3535-12.83-6.6599-20.456-0.36337-9.0436 2.5056-17.534 8.2193-23.507 5.7602-6.0207 13.767-8.9008 22.863-9.0921 6.1987-0.13315 11.407 1.5697 15.304 3.3906 4.916 2.2975 11.171 6.4226 17.912 14.049 8.9413 10.115 18.127 25.807 24.8 47.392 12.213 39.504 12.72 88.336-4.4489 127.99-4.7067 11.014-7.8155 23.065-9.4747 32.546-0.79329 4.533-1.6435 12.321-1.2176 21.147 0.54347 11.263 3.0772 22.712 8.9017 32.406 5.8615 9.7558 13.395 15.029 19.407 18.403z"/>
  </g>
  <g>
   <path style="fill:#1d3271" d="m557.15 704.83c-10.272 15.888-104.43 24.716-195.92 34.068-108.26 11.068-215.36 19.498-231.08 12.182-30.75-29.25-67.032-107.03-57.25-120.75 6.4116-8.9954 128.49 22.732 200.75 31.625 37.356 4.5974 168.9 18.789 219.76 15.785 34.392-2.0314 71.466-3.8169 77.25-2.5829"/>
   <path style="fill:#03102f" d="m557.15 704.83c-0.88836 1.3741-3.5061 2.667-8.4843 3.8177-4.3895 1.0146-9.4569 1.712-14.788 2.5471-2.4775 0.38815-4.7523 0.77191-6.4269 1.1706-9.5655 2.2772-22.061 4.6108-38.53 7.052-34.3 5.0845-73.456 8.9903-128.19 14.617-49.915 5.1267-105.61 10.314-150.04 13.055-20.631 1.2728-38.955 2.025-53.007 1.9756-6.8424-0.024-12.6-0.23825-17.079-0.6619-2.2097-0.20901-4.0364-0.46245-5.5111-0.75467-1.0393-0.20594-1.8046-0.41213-2.348-0.5966-7.0076-6.7873-14.497-16.362-21.787-27.48-7.4876-11.421-14.592-24.211-20.472-36.649-5.765-12.195-10.253-23.845-12.691-33.188-1.2163-4.6612-1.8781-8.5833-1.988-11.625-0.05459-1.5106 0.03113-2.7071 0.20506-3.6067 0.17574-0.90896 0.41308-1.3695 0.54609-1.5642-0.38022 0.5296-0.76326 0.70054-0.77682 0.70628-0.01258 0.005 0.12613-0.0639 0.53582-0.15051 0.8211-0.17356 2.146-0.29208 4.0582-0.28541 3.7995 0.0132 9.1553 0.51006 15.831 1.4167 13.384 1.8178 31.481 5.1979 51.531 9.1147 41.952 8.1954 89.262 18.055 125.39 22.467 9.8081 1.1895 25.553 2.9747 44.165 4.9067 18.67 1.938 39.704 3.9703 60.817 5.7573 23.637 2.0006 46.693 3.6372 66.764 4.5629 20.081 0.92616 36.782 1.1245 48.781 0.40488 20.364-1.2309 36.982-2.0871 49.266-2.5618 2.396-0.0926 4.5812-0.16895 6.5739-0.231 2.7563-0.0858 7.5406-0.93413 11.507-1.781 2.4641-0.52607 4.4392-1.0096 6.0505-1.4124 2.045-0.51118 3.13-0.79898 3.6103-0.69652-0.32311-0.0689-1.5923-0.71485-3.5285-1.3498-1.6072-0.52699-3.6562-1.0681-6.1589-1.5645-4.0847-0.81023-8.9205-1.3902-11.733-1.3027-2.0139 0.0627-4.2178 0.13868-6.6313 0.22987-12.441 0.47003-28.965 1.289-49.44 2.4702-11.582 0.67307-27.889 0.46087-47.9-0.48921-20-0.94954-42.811-2.5931-66.448-4.6264-42.356-3.6435-84.497-8.3057-104.65-10.822-35.701-4.4273-82.597-14.265-124.75-22.573-20.018-3.946-38.343-7.4093-52.014-9.3024-6.7765-0.93839-12.588-1.5176-16.985-1.5522-2.1771-0.0171-4.207 0.0957-5.9135 0.44175-0.8616 0.17473-1.7657 0.43309-2.6285 0.84725-0.85414 0.41-1.8679 1.0692-2.647 2.1584-1.0895 1.5209-1.7155 3.2758-2.0678 5.0287-0.35426 1.7622-0.46221 3.6723-0.40077 5.6588 0.12246 3.9592 0.93181 8.595 2.2201 13.605 2.5947 10.091 7.2937 22.313 13.172 34.83 6.011 12.801 13.302 26.013 21.003 37.823 7.691 11.796 15.854 22.297 23.741 29.822a4.5198 4.8857 81.493 0 0 1.2571 0.85642c1.468 0.68788 3.2265 1.1802 5.0682 1.5546 1.8789 0.38192 4.0631 0.68376 6.4644 0.91959 4.8833 0.47961 10.961 0.71425 17.943 0.75522 14.362 0.0843 32.927-0.65018 53.636-1.8972 44.628-2.6872 100.5-7.8323 150.45-12.915 54.604-5.5511 94.108-9.4553 128.64-14.55 16.631-2.4534 29.434-4.8298 39.379-7.1973 1.7473-0.41597 4.0472-1.1614 6.5125-2.1284 5.1818-2.0326 10.306-4.7111 14.143-7.5906 4.7437-3.5595 5.8061-6.0124 6.746-7.4663z"/>
  </g>
  <g>
   <g>
    <path style="fill:#1d3271" d="m554.4 399.33c-6-30-3-161.5 89-166s144.5 56 149.5 89"/>
   </g>
   <g>
    <path style="stroke-linejoin:round;stroke:#96b5cf;stroke-miterlimit:4.9;stroke-width:5.4;fill:#bcccdb" d="m806.68 458.94c-0.7143 0.17857-35.179 36.786-35.179 36.786l-55.536-18.571 6.4286-26.071 66.964-8.5714z"/>
    <path style="fill:#96b5cf" d="m781.5 483.73c-0.0585-0.0636-0.11744-0.12712-0.17671-0.19046-6.8139-6.787-18.462-12.157-29.55-15.787-2.551-0.83514-5.096-1.5856-7.5721-2.2446-8.5421-2.159-16.313-3.2413-20.909-2.9978 4.5191 0.51535 12.068 2.3446 20.252 5.1889 2.3949 0.79827 4.8438 1.6831 7.2935 2.6491 10.884 4.2918 21.403 10.043 26.954 16.496 0.0501 0.0535 0.0998 0.10709 0.14907 0.16067l3.5589-3.2741z"/>
    <path style="fill:#1d3271" d="m721.89 278.79c45.26 1.3937 65.317 27.897 68.667 58.551 4.1809 38.251-0.615 83.063 31.606 91.49 1.0102 17.678-13.426 42.444-17.766 46.319-20.59-15.884-58.889-19.292-75.653-4.8678 14.821 5.3571 44.894 17.026 51.299 25.649-1.9481 1.7156-15.459 10.428-24.803 11.059-4.6719-5.5558-32.641-17.078-48.199-17.876-14.288-0.73301-66.115 10.265-100.71-28.571"/>
    <path style="fill:#03102f" d="m746.46 265.39c7.3569 2.9119 16.678 9.1429 24.965 23.001 8.2662 13.823 13.352 31.75 15.279 49.371 3.238 29.625 1.2552 36.5 5.3378 57.255 0.67297 3.4214 1.407 6.3122 2.1575 8.7934 1.3237 4.3764 3.5666 10.406 7.5593 15.785 3.6627 4.9352 8.8917 9.4782 16.561 12.117-0.24622 7.1064-2.9137 15.036-6.4588 22.325-2.3998 4.9338-4.9153 8.9813-6.7725 11.732-1.8696 2.769-3.0839 4.2424-3.6636 4.8908l5.7717 5.1598c0.80212-0.89724 2.3418-2.7781 4.3463-5.7407 1.9809-2.9277 4.7169-7.386 7.2801-12.656 4.2049-8.645 7.7541-19.113 7.1997-28.814a3.8709 3.8709 5.6931 0 0 -2.8852 -3.5241c-7.3428-1.9204-11.956-5.8103-15.164-10.144-3.2166-4.3452-5.1461-9.3636-6.3636-13.379-0.67291-2.2192-1.3452-4.8549-1.9717-8.0404-4.0314-20.496-1.8468-25.575-5.2381-56.602-2.0098-18.387-7.3327-37.441-16.306-52.462-9.1647-15.341-19.824-22.721-28.785-26.268a3.8709 3.8709 90 0 0 -2.8492 7.1985z"/>
    <path style="fill:#03102f" d="m796.91 434.64c-5.6821 5.4296-5.6821 11.743 0.7576 15.152-11.617 2.6516-12.248-10.354-0.7576-15.152z"/>
    <path style="fill:#03102f" d="m606.32 460.54c3.2951 3.6986 5.767 7.338 11.567 12.932 5.0009 4.8238 9.9562 8.3866 12.997 9.8519 9.3162 4.4899 20.18 7.7212 33.018 9.2002 9.2516 1.0658 18.052 1.0653 26.383 0.70413 3.6115-0.15656 6.8496-0.36528 9.7396-0.52333 2.8977-0.15848 5.1914-0.25011 6.8349-0.1658 6.9702 0.35758 17.293 3.1348 27.122 6.9281 4.6647 1.8004 8.9542 3.7311 12.327 5.5254 1.7196 0.91489 3.1173 1.75 4.2334 2.5141 1.1499 0.78724 1.7822 1.352 2.066 1.6895a3.4323 3.4323 0 0 0 2.8584 1.2155c5.7084-0.3857 12.17-3.2604 16.485-5.5553 2.6514-1.41 4.8595-2.7936 6.418-3.8702 0.91922-0.63499 1.6668-1.1997 2.2462-1.6814 0.63637-0.52904 1.2512-1.0969 1.6914-1.7373l-5.6567-3.8891c0.13282-0.19319 0.0966-0.0845-0.42315 0.34765-0.38682 0.32159-0.96477 0.76314-1.7594 1.3121-1.343 0.92772-3.325 2.1734-5.7394 3.4573-3.7012 1.9682-8.3452 3.9708-12.258 4.5971-0.62433-0.53838-1.3208-1.0594-2.0454-1.555-1.365-0.93362-3.0512-1.926-4.8917-2.9053-3.6687-1.9519-8.2187-3.9934-13.079-5.8693-10.089-3.8941-21.178-6.9658-29.242-7.3795-2.0557-0.10546-4.7292 0.009-7.5641 0.16431-3.0973 0.17004-5.9759 0.36257-9.6593 0.52224-8.126 0.35226-16.536 0.34425-25.3-0.66546-12.13-1.3975-22.244-4.4309-30.822-8.565-3.4525-1.6638-7.4477-2.8287-13.93-6.4217-5.9316-3.288-10.957-7.1943-13.615-10.178z"/>
    <path style="fill:#03102f" d="m806.3 471.89c-3.9658-1.9844-9.873-4.6872-17.137-7.0998-7.3166-2.4301-15.577-4.4185-24.043-5.177-15.979-1.4317-28.156 1.884-36.514 8.163-1.2374 0.92951-2.4126 1.939-3.5183 3.0219 1.402 0.4723 2.7988 0.95994 4.1902 1.4628 1.8188 0.65741 3.5527 1.3134 5.0177 1.8799 2.0193 0.78074 5.2749 2.0663 9.2272 3.7466 4.0042 1.7024 8.6859 3.7942 13.369 6.1042 5.858 2.8894 10.833 5.6856 14.653 8.2875 3.8088 2.5941 5.567 4.3885 6.4402 5.5079a2.5774 2.5774 90 0 0 4.0646 -3.1704c-1.2868-1.6498-3.5139-3.8213-7.587-6.5994-4.0656-2.773-9.3494-5.7182-15.29-8.6486-4.7919-2.3636-9.5659-4.4962-13.632-6.225-4.0179-1.7082-7.3284-3.0155-9.3853-3.8107-0.0823-0.0318-0.16546-0.0639-0.24944-0.0963 2.6081-1.3822 5.6744-2.5666 9.2802-3.4148 5.7656-1.3563 12.333-1.7142 19.475-1.0742 7.9829 0.71527 15.847 2.5996 22.878 4.9348 6.97 2.3149 12.644 4.9108 16.455 6.8176a2.5774 2.5774 90 0 0 2.3067 -4.6099z"/>
   </g>
   <g>
    <path d="m806.68 458.94c-0.7143 0.17857-35.179 36.786-35.179 36.786l-55.536-18.571 6.4286-26.071 66.964-8.5714z" style="stroke-linejoin:round;stroke:#96b5cf;stroke-miterlimit:4.9;stroke-width:5.4;fill:#bcccdb"/>
    <path style="fill:#96b5cf" d="m783.11 483.48c-0.0664-0.0273-0.13294-0.0548-0.19967-0.0825-7.7541-2.841-17.562-8.326-26.111-14.178-1.9382-1.3267-3.808-2.6696-5.5711-4.0017-2.1728-1.5925-4.1891-3.1704-5.9798-4.685-3.2495-2.7486-5.7832-5.3112-7.1574-7.3984 0.96058 2.3558 3.1557 5.2933 6.1409 8.4685 1.6381 1.7424 3.5129 3.5556 5.5538 5.389 1.6952 1.4797 3.5013 2.9724 5.3799 4.4507 8.2265 6.4734 17.95 12.753 25.891 16.421 0.0719 0.0299 0.14373 0.0595 0.21541 0.089l1.8383-4.4728z"/>
    <path style="fill:#1d3271" d="m721.89 278.79c45.26 1.3937 65.317 27.897 68.667 58.551 4.1809 38.251-0.615 83.063 31.606 91.49 1.0102 17.678-13.426 42.444-17.766 46.319-32.186-10.949-31.494-12.546-50.153-28.993-7.34 31.998 18.516 42.613 25.799 49.774-1.9481 1.7156-15.459 10.428-24.803 11.059-4.6719-5.5558-32.641-17.078-48.199-17.876-14.288-0.73301-66.115 10.265-100.71-28.571"/>
    <path style="fill:#03102f" d="m746.46 265.39c7.3569 2.9119 16.678 9.1429 24.965 23.001 8.2662 13.823 13.352 31.75 15.279 49.371 3.238 29.625 1.2552 36.5 5.3378 57.255 0.67297 3.4214 1.407 6.3122 2.1575 8.7934 1.3237 4.3764 3.5666 10.406 7.5593 15.785 3.6608 4.9326 8.8864 9.4736 16.549 12.113-0.30398 7.0737-3.2154 15.073-6.9794 22.513-2.5061 4.9537-5.162 9.2111-6.9657 11.96-1.7168 2.6168-3.1788 4.645-3.566 5.1846l6.2904 4.513c0.4001-0.55768 1.9303-2.6801 3.739-5.437 1.8974-2.8923 4.7259-7.4196 7.4105-12.726 4.4042-8.7056 8.3444-19.334 7.786-29.107a3.8709 3.8709 5.6931 0 0 -2.8852 -3.5241c-7.3428-1.9204-11.956-5.8103-15.164-10.144-3.2166-4.3452-5.1461-9.3636-6.3636-13.379-0.67291-2.2192-1.3452-4.8549-1.9717-8.0404-4.0314-20.496-1.8468-25.575-5.2381-56.602-2.0098-18.387-7.3327-37.441-16.306-52.462-9.1647-15.341-19.824-22.721-28.785-26.268a3.8709 3.8709 90 0 0 -2.8492 7.1985z"/>
    <path d="m796.91 434.64c-5.6821 5.4296-5.6821 11.743 0.7576 15.152-11.617 2.6516-12.248-10.354-0.7576-15.152z" style="fill:#03102f"/>
    <path style="fill:#03102f" d="m606.32 460.54c3.2951 3.6986 5.767 7.338 11.567 12.932 5.0009 4.8238 9.9562 8.3866 12.997 9.8519 9.3162 4.4899 20.18 7.7212 33.018 9.2002 9.2516 1.0658 18.052 1.0653 26.383 0.70413 3.6115-0.15656 6.8496-0.36528 9.7396-0.52333 2.8977-0.15848 5.1914-0.25011 6.8349-0.1658 6.9702 0.35758 17.293 3.1348 27.122 6.9281 4.6647 1.8004 8.9542 3.7311 12.327 5.5254 1.7196 0.91489 3.1173 1.75 4.2334 2.5141 1.1499 0.78724 1.7822 1.352 2.066 1.6895a3.4323 3.4323 0 0 0 2.8584 1.2155c5.7084-0.3857 12.17-3.2604 16.485-5.5553 2.6514-1.41 4.8595-2.7936 6.418-3.8702 0.91922-0.63499 1.6668-1.1997 2.2462-1.6814 0.63637-0.52904 1.2512-1.0969 1.6914-1.7373l-5.6567-3.8891c0.13282-0.19319 0.0966-0.0845-0.42315 0.34765-0.38682 0.32159-0.96477 0.76314-1.7594 1.3121-1.343 0.92772-3.325 2.1734-5.7394 3.4573-3.7012 1.9682-8.3452 3.9708-12.258 4.5971-0.62433-0.53838-1.3208-1.0594-2.0454-1.555-1.365-0.93362-3.0512-1.926-4.8917-2.9053-3.6687-1.9519-8.2187-3.9934-13.079-5.8693-10.089-3.8941-21.178-6.9658-29.242-7.3795-2.0557-0.10546-4.7292 0.009-7.5641 0.16431-3.0973 0.17004-5.9759 0.36257-9.6593 0.52224-8.126 0.35226-16.536 0.34425-25.3-0.66546-12.13-1.3975-22.244-4.4309-30.822-8.565-3.4525-1.6638-7.4477-2.8287-13.93-6.4217-5.9316-3.288-10.957-7.1943-13.615-10.178z"/>
    <path style="fill:#03102f" d="m805.44 471.64c-4.8712-0.56191-13.267-1.828-22.364-6.2972-9.6928-4.7623-18.333-12.159-26.499-21.338-0.92052-1.0348-1.8262-2.0828-2.7168-3.1435-0.60329 1.3035-1.1487 2.6331-1.6345 3.9847-1.2219 3.3996-1.8166 6.245-2.1244 8.4235-0.45527 3.2226-0.62365 7.3983 0.39501 12.103 1.0258 4.7374 3.0872 9.2538 6.1495 13.571 3.6756 5.1814 8.3114 9.3903 12.45 12.651 3.8126 3.004 7.8431 5.6667 9.4941 6.7615a2.5774 2.5774 90 0 0 2.8489 -4.2961c-1.6643-1.1037-5.5292-3.6594-9.153-6.5145-3.9446-3.1079-8.1595-6.9664-11.436-11.585-5.7658-8.1279-6.5346-15.685-5.6455-21.969 0.12992-0.91822 0.3207-1.9873 0.60984-3.1958 7.5749 7.9847 15.76 14.635 24.993 19.172 9.8793 4.854 18.938 6.2048 24.041 6.7935a2.5774 2.5774 90 0 0 0.59072 -5.1209z"/>
   </g>
   <g style="display:none">
    <path style="stroke:#4a50a8;stroke-linecap:round;stroke-miterlimit:4.9;stroke-width:7.3;fill:#01000e" d="m652.85 187.56c9.3439-3.7881 16.229 4.8433 21.213 0.25254 9.5964-8.8388-9.4628-84.649 9.5964-88.136 13.338-2.4403 30.81 54.043 42.174 56.316 4.5662 0.91323 3.2825-12.875 10.354-12.122 7.3047 0.77767 17.425 31.062 16.668 66.67-29.042 24.244-103.92 16.541-103.92 16.541-9.9753-9.2176-6.1519-35.441 3.9144-39.522z"/>
   </g>
   <g>
    <path style="stroke:#03102f;stroke-linecap:round;stroke-miterlimit:4.9;stroke-width:7;fill:#1d3271" d="m683.45 240.96c23.99-34.06 152.97-202.33 156.89-199.9 4.1805 2.5879-77.105 186.19-94.128 221.85"/>
    <path style="stroke:#03102f;stroke-linecap:round;stroke-miterlimit:4.9;stroke-width:5.4;fill:none" d="m709.9 210.19c-1.0714 23.214 35.357 51.071 41.429 49.643"/>
    <path style="stroke:#03102f;stroke-linecap:round;stroke-miterlimit:4.9;stroke-width:5.4;fill:none" d="m727.55 183.6c-5.5322 19.911 16.872 56.468 33.106 50.552"/>
    <path style="stroke:#03102f;stroke-linecap:round;stroke-miterlimit:4.9;stroke-width:5.4;fill:none" d="m751.32 151.92c-7.4499 21.971 8.7125 54.675 22.728 50.508"/>
    <path style="stroke:#03102f;stroke-linecap:round;stroke-miterlimit:4.9;stroke-width:5.4;fill:none" d="m768.87 128.69c-2.4136 19.294 12.767 39.099 21.971 37.123"/>
    <path style="stroke:#03102f;stroke-linecap:round;stroke-miterlimit:4.9;stroke-width:5.4;fill:none" d="m790.97 100.91c-3.9329 8.8727 5.0699 30.488 14.521 28.916"/>
    <path style="stroke:#03102f;stroke-linecap:round;stroke-miterlimit:4.9;stroke-width:5.4;fill:none" d="m803.72 83.988c-3.1347 4.6989 5.505 23.147 12.88 19.824"/>
    <path style="stroke:#03102f;stroke-linecap:round;stroke-miterlimit:4.9;stroke-width:5.4;fill:none" d="m819.76 64.29c-1.5152 4.9245 2.9042 13.258 8.4601 13.89"/>
   </g>
   <g>
    <path d="m611.8 226.04c76.772-14.142 219.84 23.221 202.72 135.06-5.4425 35.558-71.526 47.142-78.723 7.4932 17.425 11.112 51.014-5.7415 41.669-45.078-10.859-45.709-72.02-28.614-104.05-32.577-51.013-6.3134-82.58-49.75-107.83-51.265" style="fill:#0b3dac"/>
    <path style="fill:#5c41c1" d="m611.8 226.04c7.9528-1.465 22.411-2.386 40.864-0.9192 19.546 1.5537 33.936 4.8204 44.925 7.0388 15.446 3.118 33.03 8.2004 49.927 16.279 18.13 8.6677 36.106 21.112 48.504 38.532 12.316 17.305 19.744 40.408 14.446 70.93-1.485 8.555-5.8233 15.812-12.241 21.371-6.4224 5.5628-14.803 9.2768-23.561 10.428-7.952 1.0449-15.839-0.0852-22.14-3.5878-4.2149-2.343-7.8084-5.791-10.188-10.579 2.9153 0.57543 5.9531 0.68172 8.988 0.34211 6.2622-0.70075 12.597-3.3074 17.96-7.7211 5.3276-4.3842 9.6633-10.526 12.008-18.271 2.346-7.7482 2.6461-16.915 0.17564-27.314-3.0061-12.653-9.6448-21.076-18.365-26.492-8.5905-5.335-19-7.6278-29.34-8.5968-10.933-1.0246-22.667-0.62198-32.892-0.29676-10.612 0.3375-19.581 0.58744-26.946-0.32404-25.674-3.1774-46.567-16.424-61.77-26.752-9.7821-6.6455-16.597-11.682-24.123-16.197-8.5516-5.13-15.568-7.9424-22.199-8.3403a4.114 4.114 90 0 0 -0.49278 8.2131c4.6844 0.28106 10.341 2.3126 18.459 7.1829 7.263 4.357 13.626 9.0812 23.732 15.947 15.263 10.369 37.579 24.671 65.383 28.112 8.1123 1.004 17.799 0.71837 28.215 0.38689 10.369-0.32999 21.526-0.70874 31.867 0.26033 9.809 0.91922 18.689 3.0312 25.698 7.367 6.8968 4.2668 12.254 10.844 14.769 21.431 4.3451 18.29-1.3207 30.675-9.4071 37.33-4.1501 3.4152-8.9927 5.3768-13.653 5.8977-4.6652 0.52143-9.0051-0.40744-12.395-2.5688-3.1453-2.0057-5.476-5.0633-6.5765-8.6277-0.55886 4.2677-0.45201 8.5963 0.31675 12.831 2.0772 11.443 8.4638 19.372 16.715 23.967 8.1765 4.5539 17.998 5.7758 27.272 4.5571 10.275-1.3501 20.198-5.6992 27.883-12.355 7.7566-6.7181 13.126-15.662 14.954-26.193 5.6827-32.738-2.2912-58.035-15.826-77.069-13.488-18.969-32.793-32.193-51.682-41.224-17.658-8.442-35.925-13.707-51.847-16.922-10.425-2.105-27.511-3.7842-46.468-3.0862-19.49 0.7176-32.374 3.4532-40.949 5.0328z"/>
    <use xlink:href="#star_original" transform="matrix(.93928 -.32268 .32268 .93928 639.5 268.3)" height="100%" width="100%" y="0" x="0"/>
    <use xlink:href="#star_original" transform="matrix(-.72239 .39499 -.39499 -.72239 647.32 242.99)" height="100%" width="100%" y="0" x="0"/>
    <use xlink:href="#star_original" transform="matrix(.87009 -.076736 .076736 .87009 763.8 262.19)" height="100%" width="100%" y="0" x="0"/>
    <use xlink:href="#star_original" transform="matrix(.18483 -1.2551 1.2551 .18483 683.9 248.19)" height="100%" width="100%" y="0" x="0"/>
    <use xlink:href="#star_original" transform="matrix(1.4236 -.27103 .27103 1.4236 710 257.46)" height="100%" width="100%" y="0" x="0"/>
    <use xlink:href="#star_original" transform="matrix(-.40935 -.53194 .53194 -.40935 794.62 347.14)" height="100%" width="100%" y="0" x="0"/>
   </g>
   <g>
    <path d="m597.04 268.76c-3.3928-30.536-39.636-65.616-50.357-67.143-14.286 10.536-48.485 82.5 12.23 167.5" style="fill:#1d3271"/>
    <path style="fill:#03102f" d="m597.04 268.76c-0.37901-3.4111-0.0663-5.3688-1.0861-11.395-0.82275-4.8621-2.2205-9.4542-3.4265-11.81-3.0899-6.036-7.9563-14.153-15.51-23.285-5.2257-6.3175-10.924-12.107-16.243-16.525-2.6343-2.1879-5.1415-4.0093-7.3554-5.3283-2.1522-1.2823-4.2745-2.2418-6.2013-2.5596a3.4949 3.9957 34.672 0 0 -2.7893 0.70335c-2.6825 1.9092-5.3314 5.0233-7.5924 8.3378-2.3115 3.3886-4.2534 7.0212-5.7423 10.202-0.22443 0.47951-0.46077 0.99776-0.70659 1.5539-2.9199 6.6057-7.7683 19.895-9.2477 38.464-1.1835 14.855-0.0459 31.065 4.2492 48.113 4.305 17.088 10.838 31.284 16.455 41.773 1.2984 2.4244 4.3928 6.5942 7.9942 11.035 3.28 4.0443 7.5928 9.0039 9.0741 11.078-1.7924-2.5094-4.3485-7.4042-6.7127-12.548-2.167-4.7149-4.4091-10.245-5.4511-12.191-5.4537-10.183-11.616-24.084-15.46-40.578-3.8377-16.466-4.5507-31.989-3.0829-46.033 1.8338-17.546 6.7587-29.864 9.4651-35.861 0.22951-0.50858 0.44833-0.98304 0.65353-1.4214 1.3835-2.9559 3.0737-6.1715 5.0597-9.1934 1.5173-2.3088 3.0032-4.1885 4.3192-5.5072 0.57693 0.22011 1.2852 0.54082 2.1257 0.98959 1.8491 0.98736 4.0624 2.4413 6.5911 4.3969 5.061 3.9141 10.627 9.2443 15.782 15.179 7.3983 8.5185 12.235 16.256 15.111 21.873-0.82507-1.6117 5.6616 9.6825 5.8614 10.065 2.222 4.2565 3.6032 8.1038 3.8662 10.471z"/>
    <path style="fill:#03102f" d="m552.22 232.15c-4.5207 8.3515-7.5581 15.74-9.2637 22.388-1.7042 6.6428-2.479 14.084-0.96627 21.972 1.5225 7.9391 5.3468 14.855 10.409 20.998-3.865-6.9986-5.3585-14.357-6.0368-21.63-0.65527-7.0263-0.32558-14.409 0.40847-20.623 0.76022-6.4352 2.2386-14.193 5.4497-23.104z"/>
   </g>
   <g>
    <path d="m533.11 361.08c2.4901 2.0224 7.0937 3.799 12.708 5.0311 5.6032 1.2297 12.246 1.927 18.912 1.8183 6.5471-0.10671 13.315-0.9942 19.184-3.0514 5.8393-2.0467 11.405-5.4734 14.673-11.126 0.0677-0.13595 0.13397-0.27282 0.19882-0.41063a4.8907 4.8907 90 0 0 -8.8503 -4.1649c-0.034 0.0723-0.0689 0.14424-0.10447 0.21577-1.1678 3.2582-4.0403 6.242-8.7516 8.7007-4.6569 2.4303-10.54 4.0415-16.731 4.9326-6.234 0.89728-12.631 1.0448-18.175 0.65202-5.5108-0.39038-10.22-1.3175-13.062-2.5972z"/>
    <path d="m547.78 379.71c2.4038 1.815 6.3694 2.8292 11.024 3.0912 4.6487 0.2617 9.9575-0.22053 15.143-1.3661 5.1457-1.1369 10.316-2.9588 14.591-5.4664 4.1537-2.4362 8.0759-5.8794 9.7659-10.642 0.008-0.0291 0.0158-0.0583 0.0236-0.0876a4.615 4.615 90 0 0 -8.9197 -2.3731c0-0.00001-0.009 0.034-0.009 0.034-0.15776 2.0956-1.6417 4.6827-4.817 7.3758-3.0993 2.6286-7.3284 4.9447-11.957 6.7304-4.5954 1.773-9.4934 2.9902-13.868 3.4913-4.3519 0.49851-8.2891 0.30588-10.978-0.78758z"/>
    <path d="m549.42 396.76c7.5575 2.4853 19.27 1.0838 29.749-2.6011 5.2156-1.834 10.239-4.2718 14.323-7.161 3.3397-2.3626 6.3292-5.2221 8.1492-8.5836 0.33099-0.73959 0.61031-1.5027 0.82701-2.2873a4.0767 4.0767 90 0 0 -7.8591 -2.1706c-0.0992 0.35915-0.23443 0.7351-0.41002 1.1276-0.59318 2.0699-2.1824 4.4747-4.7559 6.9695-3.0726 2.9786-7.2537 5.8042-11.941 8.1847-9.3183 4.7323-20.388 7.5834-28.082 6.5219z"/>
    <path id="path4365" d="m722.04 444.65c2.3214-31.429-5.373-72.202-32.482-101.28-16.45-17.645-44.597-38.722-82.806-23.016-22.954 9.4358-22.889 64.502-3.7941 89.326 35.355 45.962 112.4 40.436 119.08 34.97z" style="fill:#bcccdb"/>
    <g id="pony_eye_out" clip-path="url(#clipPath10655)">
     <g id="pony_eye_in" clip-path="none">
      <ellipse id="ellipse4368" style="fill:url(#linearGradient6338)" clip-path="none" rx="32.695" ry="49.786" transform="matrix(1 0 .14698 .98914 -497.6 147.47)" cy="251.63" cx="1154.2"/>
      <g transform="translate(-498.14 143.54)" clip-path="url(#clipPath4397)">
       <path d="m1150.6 259.14 33.335-7.3236 0.7576 5.3033-31.062 28.284z" style="fill:#42c2b2"/>
       <path d="m1158.1 276.31 13.384 16.92 14.647-39.396z" style="fill:#6ccccf"/>
      </g>
      <ellipse rx="20.456" ry="31.042" transform="matrix(1 0 .12203 .99253 0 0)" cy="399.35" cx="644.85"/>
      <path style="fill:#bcccdb" d="m694.55 366.17c7.7073-2.2175 15.61 11.154 17.753 18.744 2.1798 7.7199 0.6249 18.304-5.8036 18.661-6.4286 0.35714-12.827-8.2666-15.148-15.588-2.3214-7.3214-3.1211-19.998 3.199-21.816z"/>
      <ellipse style="fill:#bcccdb" rx="4.8525" ry="7.2295" transform="matrix(.99140 .13087 .089681 .99597 0 0)" cy="316.25" cx="666.82"/>
     </g>
    </g>
    <path style="fill:#4f73be" d="m591.5 329.47c5.9551-10.941 20.18-22.096 40.177-21.388 36.132 1.2791 62.68 24.246 72.501 50.496-11.607-7.3214-64.643-38.214-112.68-29.107z"/>
    <path d="m574.9 278.4c0.95222 10.251 7.9654 23.313 16.959 34.163 4.601 5.551 9.7754 10.595 15.1 14.466 5.27 3.1641 10.915 5.4562 16.352 5.626a5.1504 5.1504 90 0 0 0.32174 -10.296c-2.9236-0.0914-6.8506-1.4162-11.394-4.1472-4.9773-2.3124-10.389-5.9925-15.502-10.404-9.9421-8.5772-18.719-19.875-21.836-29.409z"/>
    <path d="m543.27 287.3c0.9791 10.23 8.0741 22.324 17.961 31.605 5.5878 5.2453 12.226 9.7411 19.328 12.387 5.5479 1.5605 11.355 2.0483 17.016 0.86989a5.2079 5.2079 90 0 0 -2.1228 -10.197c-3.6923 0.76866-7.774 0.50961-12.067-0.69703-5.8761-0.99108-12.135-3.6842-18.019-7.5574-10.256-6.7507-18.997-16.842-22.096-26.41z"/>
    <path d="m722.15 376.43c-1.9608-3.2362-4.3719-8.2708-11.61-15.951-6.8446-7.2621-15.201-13.628-20.822-16.73-4.6496-2.5664-12.048-6.4707-21.55-10.332-14.27-5.7993-31.15-10.629-48.945-12.068-18.005-1.4554-31.854 0.98774-41.305 3.8282-0.26821 0.0806-0.53617 0.16239-0.8039 0.24534a5.8108 5.8108 90 0 0 3.4395 11.101c0.23625-0.0732 0.4728-0.14539 0.70963-0.21657 8.3172-2.4998 20.605-5.0416 37.221-4.1372 16.489 0.89749 32.474 4.9398 46.197 10.128 9.1194 3.4475 16.202 7.008 20.61 9.4458 6.6587 3.6825 12.947 6.273 22.315 12.247 8.0667 5.1441 12.802 9.568 14.542 12.44z"/>
    <path d="m524.92 313.55c5.4024 8.844 14.543 16.297 25.24 20.553 10.624 4.2271 23.076 5.3926 34.76 1.0821a4.4585 4.4585 90 0 0 -3.5794 -8.1671c-8.7827 4.6629-19.416 5.433-29.795 2.8499-10.291-2.5612-20.037-8.3693-26.625-16.318z"/>
   </g>
  </g>
 </g>
</svg>
