<?xml version="1.0" encoding="UTF-8" standalone="no"?>
<svg xmlns:rdf="http://www.w3.org/1999/02/22-rdf-syntax-ns#" xmlns="http://www.w3.org/2000/svg" height="128" width="128" version="1.1" xmlns:cc="http://creativecommons.org/ns#" xmlns:xlink="http://www.w3.org/1999/xlink" viewBox="0 0 33.866666 33.866666" xmlns:dc="http://purl.org/dc/elements/1.1/">
 <defs>
  <radialGradient id="radialGradient4513-3-6" gradientUnits="userSpaceOnUse" cy="218.48" cx="870.25" gradientTransform="matrix(.51044 0 0 .51044 -343.9 -18.181)" r="14.142">
   <stop style="stop-color:#fcfbfe" offset="0"/>
   <stop style="stop-color:#fcfbfe" offset=".32617"/>
   <stop style="stop-color:#fcfbfe;stop-opacity:.35754" offset=".70830"/>
   <stop style="stop-color:#fcfbfe;stop-opacity:0" offset="1"/>
  </radialGradient>
 </defs>
 <g style="display:none" transform="translate(-83.251 -76.412)">
  <rect style="fill:#3a1d74" height="33.867" width="33.867" y="76.412" x="83.251"/>
 </g>
 <g transform="translate(-83.251 -76.412)">
  <path id="star_streak" style="fill:#fcfbfe" d="m109.13 102.45-8.3652-7.9923-0.63398 15.29-0.67514-15.367-8.539 7.7317 7.6676-8.7116-13.109-0.5635 13.186-0.74574-7.0659-8.3495 8.046 7.4781 0.7692-14.278 0.53994 14.355 8.9666-7.9697-8.0952 8.9498 13.109 0.56348-13.186 0.74576z"/>
  <circle id="star_glow" style="fill:url(#radialGradient4513-3-6)" cx="100.31" cy="93.341" r="7.2188"/>
  <path id="star_core" style="fill:#fcfbfe" d="m105.97 99.023-5.366-5.012-0.44742 8.8396-0.49773-8.8951-5.2401 4.572 4.611-5.2795-7.1631-0.3937 7.2185-0.55154-3.8734-4.7174 4.5809 4.0883 0.52576-7.8274 0.41941 7.8829 4.9378-4.2841-4.3087 4.9916 7.2631 0.4695-7.3185 0.47574z"/>
 </g>
</svg>
